<svg width="168" height="120" viewBox="0 0 168 120" fill="none" xmlns="http://www.w3.org/2000/svg">
<g filter="url(#filter0_d_341_418)">
<rect x="23.1091" y="19.1091" width="125.915" height="49.0178" rx="18" transform="rotate(11.3778 23.1091 19.1091)" fill="#FDFDFD"/>
</g>
<path d="M37.7583 47.2277L39.1596 40.0912L43.7314 40.9889L43.5186 42.0726L40.2396 41.4288L39.8591 43.3662L42.8245 43.9485L42.6117 45.0322L39.6463 44.4499L39.0511 47.4815L37.7583 47.2277ZM46.8229 46.6698L47.4319 43.5685L48.6933 43.8162L47.6424 49.1685L46.4193 48.9283L46.6061 47.977L46.5503 47.9661C46.3707 48.242 46.1239 48.4481 45.8101 48.5843C45.4985 48.721 45.1418 48.7499 44.7399 48.671C44.3892 48.6021 44.0943 48.4634 43.8554 48.2548C43.6193 48.0444 43.4551 47.7745 43.363 47.4452C43.2713 47.1135 43.2674 46.734 43.3513 46.3065L44.0205 42.8986L45.2819 43.1463L44.6511 46.3591C44.5845 46.6983 44.6245 46.986 44.7711 47.2223C44.9177 47.4585 45.142 47.6063 45.444 47.6656C45.6298 47.7021 45.8188 47.6922 46.0108 47.6358C46.2028 47.5794 46.3721 47.4727 46.5188 47.3157C46.6682 47.1569 46.7696 46.9416 46.8229 46.6698ZM51.455 42.5055L50.0537 49.642L48.7923 49.3943L50.1936 42.2578L51.455 42.5055ZM53.8664 42.979L52.4651 50.1155L51.2037 49.8678L52.605 42.7313L53.8664 42.979ZM58.6185 47.2343L57.444 47.134C57.4343 47.0115 57.3988 46.8911 57.3376 46.7729C57.2786 46.6552 57.188 46.5517 57.0656 46.4626C56.9431 46.3734 56.7844 46.3096 56.5892 46.2713C56.3267 46.2198 56.0948 46.2333 55.8936 46.3121C55.6947 46.3912 55.5786 46.5216 55.5454 46.7033C55.5125 46.8585 55.5445 46.9963 55.6415 47.1166C55.7409 47.2375 55.9203 47.3559 56.1797 47.472L57.0544 47.8464C57.5394 48.055 57.8817 48.302 58.0814 48.5873C58.2835 48.8731 58.348 49.2078 58.2751 49.5916C58.2066 49.928 58.0495 50.206 57.8037 50.4255C57.5607 50.6432 57.2532 50.7903 56.8811 50.8668C56.509 50.9433 56.1 50.9378 55.6539 50.8502C54.9988 50.7216 54.4984 50.481 54.1527 50.1284C53.8074 49.7735 53.6448 49.3423 53.6648 48.8347L54.9181 48.9578C54.9264 49.2103 55.0091 49.4159 55.1661 49.5746C55.3231 49.7333 55.5469 49.8412 55.8372 49.8982C56.1369 49.9571 56.3894 49.9427 56.5948 49.8552C56.8025 49.7681 56.9241 49.6339 56.9597 49.4527C56.9898 49.2994 56.9555 49.1612 56.8566 49.038C56.7601 48.9153 56.5939 48.8031 56.3582 48.7013L55.4828 48.3304C54.9904 48.1227 54.6459 47.8681 54.4494 47.5665C54.2533 47.2626 54.1948 46.9158 54.2737 46.526C54.3362 46.1956 54.4817 45.9275 54.7104 45.7214C54.9418 45.5136 55.2331 45.3753 55.5844 45.3068C55.9384 45.2364 56.3291 45.2431 56.7565 45.3271C57.3838 45.4502 57.8512 45.6807 58.1588 46.0186C58.4687 46.3569 58.622 46.7621 58.6185 47.2343ZM62.577 46.5423L62.3854 47.518L59.3085 46.9138L59.5001 45.9381L62.577 46.5423ZM60.5115 44.805L61.7729 45.0527L60.7863 50.0775C60.753 50.247 60.753 50.3821 60.7863 50.4828C60.8224 50.5815 60.8802 50.6556 60.9598 50.705C61.0394 50.7544 61.1314 50.7894 61.236 50.8099C61.3149 50.8254 61.3881 50.8338 61.4554 50.8349C61.5251 50.8365 61.5782 50.8361 61.6149 50.8337L61.6338 51.8615C61.5619 51.8715 61.4605 51.8782 61.3295 51.8814C61.201 51.8851 61.0468 51.8717 60.867 51.8412C60.5492 51.7885 60.274 51.685 60.0413 51.5307C59.8091 51.3742 59.6405 51.1698 59.5356 50.9176C59.4331 50.6658 59.4158 50.3729 59.4838 50.0388L60.5115 44.805ZM63.9527 52.4834C63.6136 52.4168 63.32 52.2964 63.0719 52.1222C62.8266 51.9462 62.6484 51.723 62.5375 51.4527C62.4288 51.1829 62.4089 50.8726 62.4778 50.5218C62.5371 50.2198 62.6419 49.981 62.7921 49.8054C62.9424 49.6299 63.1256 49.5018 63.3417 49.4212C63.5578 49.3405 63.7925 49.2938 64.046 49.2808C64.3022 49.266 64.5632 49.2702 64.8288 49.2934C65.1488 49.3224 65.4089 49.3433 65.6091 49.3561C65.8097 49.3665 65.9596 49.3526 66.0588 49.3141C66.1608 49.2739 66.2237 49.1933 66.2474 49.0725L66.2515 49.0516C66.3031 48.7891 66.2651 48.5705 66.1378 48.396C66.0104 48.2214 65.8004 48.1053 65.5077 48.0479C65.1987 47.9872 64.9404 48.0064 64.7327 48.1056C64.5274 48.2052 64.3754 48.3406 64.2766 48.5118L63.1317 48.1133C63.2884 47.8063 63.4951 47.5646 63.7517 47.3882C64.0088 47.2095 64.3025 47.0959 64.6329 47.0474C64.9638 46.9965 65.3162 47.0078 65.6902 47.0813C65.9481 47.1319 66.1989 47.2125 66.4425 47.3231C66.6862 47.4336 66.9001 47.5794 67.0841 47.7603C67.2686 47.9388 67.4014 48.1591 67.4827 48.4212C67.5663 48.6837 67.5731 48.9926 67.5033 49.3481L66.8 52.9302L65.5873 52.6921L65.7317 51.9569L65.6899 51.9487C65.584 52.0823 65.4486 52.2005 65.2837 52.3032C65.1216 52.404 64.9282 52.4734 64.7036 52.5114C64.4818 52.5474 64.2315 52.5381 63.9527 52.4834ZM64.4623 51.6208C64.7155 51.6705 64.9449 51.6637 65.1503 51.6003C65.3562 51.5345 65.5256 51.4278 65.6583 51.2802C65.7933 51.133 65.8803 50.9607 65.919 50.7632L66.0429 50.1325C65.997 50.1573 65.9237 50.1743 65.823 50.1834C65.7246 50.1931 65.6153 50.1969 65.495 50.195C65.3747 50.1931 65.2561 50.1891 65.1391 50.183C65.0221 50.1769 64.9206 50.1715 64.8347 50.1667C64.6415 50.1553 64.4649 50.164 64.3048 50.1929C64.1447 50.2218 64.0114 50.2801 63.9049 50.3677C63.7989 50.4531 63.7299 50.5771 63.698 50.7397C63.6524 50.972 63.7027 51.164 63.8491 51.3158C63.9954 51.4676 64.1998 51.5692 64.4623 51.6208ZM70.2353 53.7134C69.701 53.6085 69.2652 53.401 68.928 53.0912C68.5931 52.7817 68.3629 52.3999 68.2373 51.9458C68.1145 51.4899 68.1063 50.9913 68.2126 50.45C68.3193 49.9064 68.518 49.4472 68.8088 49.0724C69.0999 48.6953 69.4588 48.428 69.8854 48.2705C70.3148 48.1112 70.7908 48.0828 71.3135 48.1854C71.7479 48.2707 72.1167 48.4264 72.4197 48.6523C72.7255 48.8765 72.9498 49.1533 73.0926 49.4829C73.2358 49.8102 73.2835 50.1694 73.2357 50.5605L72.03 50.3238C72.0318 50.0563 71.9579 49.8186 71.8081 49.6107C71.6611 49.4009 71.4355 49.2661 71.1312 49.2064C70.8733 49.1557 70.6331 49.1809 70.4106 49.282C70.1886 49.3808 69.9976 49.5483 69.8378 49.7848C69.6803 50.0216 69.5662 50.3201 69.4955 50.6802C69.4239 51.0449 69.4157 51.369 69.4711 51.6525C69.5268 51.9337 69.6372 52.164 69.8022 52.3436C69.97 52.5213 70.1851 52.6359 70.4476 52.6875C70.6335 52.724 70.8064 52.7217 70.9664 52.6808C71.1293 52.638 71.2738 52.559 71.4002 52.4439C71.5265 52.3287 71.6272 52.1784 71.7023 51.9929L72.9079 52.2296C72.8034 52.6024 72.626 52.9162 72.3757 53.171C72.1258 53.4235 71.8186 53.5996 71.454 53.6993C71.0899 53.7967 70.6837 53.8014 70.2353 53.7134ZM74.917 52.7798L75.2125 51.2563L75.4147 51.296L77.7603 49.5237L79.2343 49.8131L76.351 51.9829L76.0896 51.9316L74.917 52.7798ZM73.4373 54.2335L74.8386 47.0971L76.1 47.3448L74.6987 54.4812L73.4373 54.2335ZM76.7965 54.8931L75.5324 52.1153L76.5572 51.3937L78.3053 55.1894L76.7965 54.8931ZM83.6377 56.2365L81.2194 55.7616L82.6207 48.6252L85.0877 49.1096C85.7963 49.2487 86.3769 49.5111 86.8295 49.8967C87.2849 50.2805 87.5975 50.7653 87.7671 51.3511C87.9368 51.9369 87.9489 52.6003 87.8034 53.3414C87.6574 54.0848 87.3937 54.6965 87.0124 55.1765C86.6333 55.657 86.1567 55.9892 85.5826 56.1732C85.0108 56.3577 84.3625 56.3788 83.6377 56.2365ZM82.7318 54.8969L83.7946 55.1056C84.2917 55.2032 84.7242 55.194 85.0919 55.0781C85.4602 54.9598 85.7635 54.7358 86.0019 54.4063C86.2408 54.0744 86.4138 53.6355 86.521 53.0896C86.6282 52.5437 86.6336 52.0742 86.537 51.6813C86.4409 51.2861 86.2466 50.9669 85.9542 50.7237C85.6646 50.4786 85.2781 50.3087 84.7949 50.2138L83.6938 49.9976L82.7318 54.8969ZM90.4757 57.6877C89.9391 57.5824 89.4975 57.3799 89.1511 57.0802C88.8074 56.7787 88.5713 56.4018 88.443 55.9496C88.3151 55.495 88.3061 54.9878 88.4161 54.428C88.5242 53.8774 88.7236 53.4147 89.0143 53.0399C89.3078 52.6633 89.6667 52.396 90.091 52.238C90.5157 52.0778 90.9836 52.0478 91.4947 52.1482C91.8246 52.2129 92.1254 52.3275 92.3971 52.4918C92.6716 52.6543 92.8999 52.868 93.0819 53.1329C93.2662 53.3983 93.3899 53.7145 93.4529 54.0816C93.5164 54.4463 93.5021 54.8633 93.4099 55.3325L93.334 55.7193L88.9469 54.8579L89.1138 54.0076L92.2918 54.6317C92.3369 54.3896 92.3268 54.1645 92.2616 53.9562C92.1967 53.7457 92.0833 53.5678 91.9212 53.4225C91.7615 53.2778 91.5608 53.1817 91.3192 53.1342C91.0613 53.0836 90.8225 53.1019 90.6027 53.189C90.3834 53.2738 90.1993 53.4065 90.0505 53.5872C89.9044 53.766 89.8067 53.9748 89.7574 54.2136L89.6116 54.9558C89.5505 55.2671 89.555 55.5455 89.625 55.7908C89.6955 56.0339 89.8213 56.2347 90.0025 56.3933C90.1841 56.5496 90.412 56.6547 90.6861 56.7085C90.8696 56.7445 91.0407 56.7516 91.1995 56.7297C91.3586 56.7054 91.5028 56.6529 91.6321 56.5722C91.7613 56.4914 91.8687 56.381 91.9541 56.2409L93.1059 56.6046C92.9704 56.9013 92.7753 57.1453 92.5206 57.3365C92.2687 57.5259 91.9688 57.6528 91.6208 57.7171C91.2732 57.7792 90.8916 57.7694 90.4757 57.6877ZM99.4747 53.7875L96.5177 58.7655L95.1238 58.4919L94.2687 52.7652L95.6138 53.0294L96.0631 57.2468L96.1189 57.2578L98.1331 53.5241L99.4747 53.7875ZM101.316 59.8164C100.78 59.711 100.338 59.5085 99.9917 59.2088C99.648 58.9073 99.412 58.5305 99.2836 58.0782C99.1558 57.6237 99.1468 57.1165 99.2567 56.5566C99.3648 56.006 99.5642 55.5434 99.855 55.1686C100.148 54.7919 100.507 54.5246 100.932 54.3667C101.356 54.2064 101.824 54.1765 102.335 54.2768C102.665 54.3416 102.966 54.4561 103.238 54.6205C103.512 54.7829 103.74 54.9966 103.922 55.2616C104.107 55.527 104.231 55.8432 104.294 56.2102C104.357 56.5749 104.343 56.9919 104.251 57.4612L104.175 57.848L99.7875 56.9865L99.9545 56.1363L103.132 56.7603C103.178 56.5182 103.167 56.2931 103.102 56.0849C103.037 55.8743 102.924 55.6964 102.762 55.5512C102.602 55.4064 102.401 55.3103 102.16 55.2629C101.902 55.2123 101.663 55.2305 101.443 55.3176C101.224 55.4024 101.04 55.5352 100.891 55.7158C100.745 55.8946 100.647 56.1034 100.598 56.3423L100.452 57.0845C100.391 57.3958 100.396 57.6741 100.466 57.9195C100.536 58.1625 100.662 58.3633 100.843 58.522C101.025 58.6783 101.253 58.7833 101.527 58.8371C101.71 58.8732 101.881 58.8802 102.04 58.8583C102.199 58.8341 102.343 58.7816 102.473 58.7008C102.602 58.62 102.709 58.5096 102.795 58.3696L103.947 58.7333C103.811 59.0299 103.616 59.2739 103.361 59.4652C103.109 59.6546 102.809 59.7814 102.461 59.8458C102.114 59.9078 101.732 59.898 101.316 59.8164ZM107.3 53.471L105.898 60.6075L104.637 60.3598L106.038 53.2234L107.3 53.471ZM109.362 61.3963C108.84 61.2936 108.409 61.0897 108.071 60.7844C107.733 60.4792 107.499 60.0991 107.369 59.6441C107.241 59.1895 107.231 58.6858 107.34 58.1329C107.448 57.58 107.648 57.1162 107.939 56.7414C108.232 56.3671 108.592 56.1025 109.021 55.9478C109.449 55.7931 109.925 55.7671 110.448 55.8697C110.97 55.9723 111.401 56.1763 111.739 56.4815C112.077 56.7868 112.31 57.1678 112.437 57.6247C112.567 58.0821 112.578 58.5872 112.469 59.1401C112.36 59.693 112.16 60.1554 111.867 60.5274C111.577 60.8998 111.218 61.1634 110.789 61.3181C110.361 61.4729 109.885 61.4989 109.362 61.3963ZM109.568 60.3871C109.851 60.4428 110.103 60.4115 110.324 60.2932C110.546 60.1727 110.729 59.9891 110.874 59.7425C111.021 59.4964 111.127 59.2107 111.191 58.8855C111.255 58.5579 111.266 58.2524 111.222 57.9688C111.182 57.6834 111.082 57.4431 110.922 57.2477C110.763 57.0523 110.542 56.9268 110.258 56.8712C109.968 56.8141 109.711 56.8457 109.487 56.9658C109.265 57.0863 109.081 57.2709 108.933 57.5193C108.788 57.7659 108.683 58.053 108.619 58.3805C108.555 58.7057 108.544 59.0099 108.585 59.293C108.628 59.5765 108.729 59.8159 108.889 60.0113C109.051 60.2048 109.277 60.3301 109.568 60.3871ZM112.477 63.9838L113.922 56.6243L115.163 56.8679L114.989 57.753L115.062 57.7674C115.152 57.65 115.271 57.5298 115.419 57.4067C115.566 57.2813 115.751 57.1862 115.974 57.1213C116.197 57.0542 116.465 57.0514 116.779 57.113C117.193 57.1941 117.545 57.3731 117.835 57.6497C118.129 57.9245 118.333 58.2866 118.447 58.7361C118.564 59.1837 118.565 59.7049 118.448 60.2996C118.332 60.8873 118.138 61.3678 117.864 61.7412C117.591 62.1145 117.267 62.3766 116.892 62.5274C116.517 62.6782 116.12 62.7123 115.699 62.6298C115.393 62.5695 115.148 62.4685 114.966 62.3266C114.784 62.1847 114.646 62.0296 114.551 61.8614C114.459 61.6914 114.392 61.5347 114.35 61.3913L114.298 61.3811L113.738 64.2315L112.477 63.9838ZM114.634 59.5434C114.566 59.8895 114.555 60.2023 114.601 60.4816C114.65 60.7614 114.753 60.9927 114.91 61.1756C115.07 61.3565 115.284 61.4733 115.551 61.5257C115.829 61.5805 116.078 61.552 116.295 61.4402C116.513 61.3262 116.695 61.1484 116.841 60.9069C116.99 60.6636 117.098 60.3747 117.163 60.0401C117.229 59.7079 117.239 59.4036 117.194 59.127C117.15 58.8504 117.048 58.6205 116.888 58.4372C116.729 58.2539 116.509 58.1346 116.227 58.0795C115.958 58.0265 115.715 58.0525 115.499 58.1572C115.283 58.262 115.101 58.4326 114.954 58.6689C114.808 58.9058 114.701 59.1972 114.634 59.5434ZM121.206 63.7218C120.669 63.6164 120.228 63.4139 119.881 63.1143C119.537 62.8128 119.301 62.4359 119.173 61.9837C119.045 61.5291 119.036 61.0219 119.146 60.462C119.254 59.9115 119.454 59.4488 119.744 59.074C120.038 58.6974 120.397 58.4301 120.821 58.2721C121.246 58.1118 121.714 58.0819 122.225 58.1822C122.555 58.247 122.855 58.3616 123.127 58.5259C123.402 58.6884 123.63 58.9021 123.812 59.167C123.996 59.4324 124.12 59.7486 124.183 60.1157C124.246 60.4804 124.232 60.8974 124.14 61.3666L124.064 61.7534L119.677 60.892L119.844 60.0417L123.022 60.6657C123.067 60.4237 123.057 60.1985 122.992 59.9903C122.927 59.7797 122.813 59.6018 122.651 59.4566C122.491 59.3119 122.291 59.2158 122.049 59.1683C121.791 59.1177 121.552 59.1359 121.333 59.2231C121.113 59.3079 120.929 59.4406 120.78 59.6213C120.634 59.8001 120.537 60.0089 120.487 60.2477L120.342 60.9899C120.28 61.3012 120.285 61.5795 120.355 61.8249C120.425 62.0679 120.551 62.2688 120.732 62.4274C120.914 62.5837 121.142 62.6887 121.416 62.7426C121.6 62.7786 121.771 62.7857 121.929 62.7638C122.089 62.7395 122.233 62.687 122.362 62.6062C122.491 62.5255 122.599 62.415 122.684 62.275L123.836 62.6387C123.7 62.9354 123.505 63.1793 123.251 63.3706C122.999 63.56 122.699 63.6869 122.351 63.7512C122.003 63.8133 121.622 63.8035 121.206 63.7218ZM124.526 64.2652L125.577 58.9129L126.8 59.1531L126.625 60.0451L126.681 60.0561C126.839 59.7663 127.053 59.561 127.323 59.4403C127.595 59.3177 127.885 59.2865 128.192 59.3467C128.261 59.3604 128.339 59.3791 128.423 59.403C128.51 59.4249 128.582 59.4474 128.638 59.4705L128.41 60.6308C128.36 60.6018 128.279 60.5689 128.165 60.5321C128.055 60.4935 127.946 60.4637 127.839 60.4427C127.609 60.3976 127.392 60.4069 127.189 60.4708C126.989 60.5327 126.819 60.6406 126.681 60.7943C126.542 60.948 126.45 61.1387 126.405 61.3663L125.788 64.5129L124.526 64.2652Z" fill="black"/>
<path d="M38.7681 57.7183C38.2896 57.6243 37.8783 57.4579 37.5344 57.2191C37.1928 56.9807 36.9415 56.6937 36.7806 56.3581C36.6225 56.0207 36.5734 55.6564 36.6333 55.2652L37.7275 55.4801C37.6999 55.6942 37.7347 55.8916 37.8319 56.0724C37.9319 56.2512 38.0782 56.403 38.2709 56.5277C38.4635 56.6524 38.6876 56.7398 38.9432 56.79C39.2243 56.8452 39.4824 56.8452 39.7176 56.7901C39.9551 56.7354 40.1526 56.633 40.3099 56.4829C40.4677 56.3306 40.5692 56.1394 40.6143 55.9094C40.6613 55.6701 40.641 55.4478 40.5535 55.2424C40.4687 55.0352 40.3193 54.8563 40.1052 54.7057C39.8934 54.5555 39.6226 54.448 39.2927 54.3833L38.6899 54.2649L38.8623 53.3868L39.4651 53.5051C39.73 53.5571 39.9716 53.5551 40.1901 53.4991C40.4109 53.4436 40.5949 53.3422 40.742 53.1949C40.8896 53.0454 40.986 52.8556 41.0311 52.6256C41.0745 52.4049 41.0621 52.2035 40.9942 52.0212C40.929 51.8371 40.8149 51.6808 40.652 51.5523C40.4914 51.4243 40.2891 51.3363 40.0452 51.2884C39.8128 51.2428 39.5872 51.2431 39.3682 51.2894C39.152 51.3338 38.9657 51.4227 38.8092 51.556C38.6532 51.687 38.5491 51.8608 38.4969 52.0774L37.4551 51.8728C37.5424 51.4894 37.7228 51.1726 37.9963 50.9223C38.2722 50.6725 38.6052 50.5002 38.9953 50.4055C39.3855 50.3109 39.7989 50.3064 40.2356 50.3921C40.6933 50.482 41.0706 50.649 41.3677 50.8931C41.6676 51.1353 41.8791 51.4218 42.0024 51.7524C42.128 52.0834 42.1552 52.4241 42.084 52.7745C42.0078 53.1745 41.8297 53.4918 41.5496 53.7263C41.2719 53.9612 40.9378 54.0899 40.5474 54.1121L40.5365 54.1679C40.9962 54.333 41.3263 54.5932 41.5268 54.9486C41.7295 55.3045 41.7855 55.7075 41.6947 56.1577C41.6199 56.5508 41.4416 56.8813 41.1598 57.1492C40.8803 57.4177 40.5337 57.6041 40.1199 57.7086C39.7066 57.8108 39.256 57.8141 38.7681 57.7183ZM45.2082 60.966C45.0526 60.9354 44.9134 60.8948 44.7906 60.8442C44.6674 60.7959 44.5772 60.7516 44.52 60.7114L44.9385 59.907C45.1189 59.9955 45.2842 60.0509 45.4342 60.0731C45.5843 60.0953 45.7265 60.0653 45.8608 59.9831C45.9975 59.9014 46.1333 59.7507 46.2681 59.5311L46.4668 59.201L45.5731 53.3944L46.6882 53.6134L47.2281 58.0332L47.2838 58.0441L49.4549 54.1567L50.5735 54.3763L47.1765 60.0099C47.0196 60.2686 46.8432 60.4788 46.6473 60.6406C46.4511 60.8047 46.2341 60.9141 45.9966 60.9688C45.7591 61.0235 45.4963 61.0226 45.2082 60.966ZM52.458 60.4172C51.9307 60.3137 51.4987 60.1118 51.1619 59.8117C50.828 59.5097 50.598 59.1328 50.472 58.681C50.3487 58.2274 50.3416 57.7229 50.4506 57.1677C50.5583 56.6195 50.7554 56.1563 51.0419 55.7783C51.3308 55.4008 51.6829 55.131 52.0984 54.9689C52.5161 54.8072 52.9736 54.7752 53.4707 54.8728C53.7727 54.9321 54.0556 55.0395 54.3194 55.1951C54.5832 55.3506 54.8068 55.5574 54.9902 55.8153C55.1735 56.0733 55.2967 56.3858 55.3598 56.7528C55.4233 57.1176 55.4074 57.5427 55.312 58.0282L55.2395 58.3976L50.9848 57.5621L51.1381 56.7816L54.3718 57.4165C54.4256 57.1424 54.4175 56.8887 54.3475 56.6554C54.278 56.4198 54.1542 56.2206 53.9763 56.0578C53.8007 55.8954 53.5782 55.7878 53.3087 55.7349C53.016 55.6774 52.7463 55.6992 52.4997 55.8004C52.2558 55.8997 52.052 56.0527 51.8884 56.2594C51.7275 56.4643 51.6209 56.7003 51.5684 56.9674L51.4487 57.5772C51.3784 57.935 51.3814 58.2516 51.4576 58.5271C51.5361 58.8031 51.6762 59.0296 51.8778 59.2068C52.0799 59.3816 52.3332 59.4988 52.6375 59.5586C52.8349 59.5974 53.0205 59.6048 53.194 59.581C53.368 59.5549 53.5255 59.4965 53.6663 59.4059C53.8071 59.3154 53.9253 59.1926 54.0209 59.0377L54.9721 59.409C54.8361 59.6839 54.6445 59.9105 54.3972 60.0887C54.1526 60.265 53.8652 60.3835 53.5348 60.4441C53.2072 60.5028 52.8483 60.4939 52.458 60.4172ZM57.3188 61.3825C56.9796 61.3159 56.6853 61.193 56.4358 61.0137C56.1867 60.8321 56.0058 60.6048 55.893 60.3317C55.7824 60.0591 55.7616 59.7474 55.8305 59.3966C55.8898 59.0946 55.9967 58.8575 56.1511 58.6851C56.3056 58.5128 56.4927 58.3891 56.7126 58.3141C56.9324 58.239 57.1699 58.1964 57.4253 58.1862C57.6806 58.176 57.9378 58.1807 58.197 58.2002C58.5248 58.226 58.791 58.2469 58.9953 58.2629C59.2001 58.2766 59.3533 58.2644 59.4548 58.2264C59.5564 58.1885 59.6195 58.1068 59.6441 57.9813L59.6489 57.9569C59.7086 57.6526 59.669 57.4 59.5299 57.1989C59.3932 56.9984 59.1564 56.865 58.8195 56.7989C58.4688 56.73 58.177 56.7535 57.9444 56.8695C57.7145 56.9836 57.5427 57.1272 57.4291 57.3003L56.4937 56.885C56.6738 56.5826 56.8949 56.3534 57.1571 56.1974C57.4221 56.0396 57.7099 55.9441 58.0204 55.9109C58.3314 55.8755 58.6483 55.8895 58.9712 55.9529C59.1849 55.9948 59.4064 56.0649 59.6356 56.163C59.8677 56.2592 60.0752 56.394 60.2583 56.5675C60.4437 56.7414 60.5796 56.9647 60.6659 57.2374C60.7528 57.5078 60.7579 57.8381 60.6813 58.2284L59.9833 61.7827L58.9658 61.5829L59.1095 60.8511L59.0677 60.8429C58.9739 60.9644 58.8468 61.077 58.6866 61.1806C58.5263 61.2843 58.332 61.3583 58.1037 61.4028C57.8754 61.4472 57.6138 61.4405 57.3188 61.3825ZM57.7095 60.5907C57.9975 60.6473 58.255 60.6387 58.4817 60.565C58.7108 60.4918 58.8968 60.3739 59.0397 60.2114C59.1854 60.047 59.279 59.8591 59.3205 59.6477L59.456 58.9577C59.4115 58.9876 59.3327 59.0083 59.2194 59.0198C59.109 59.0295 58.9841 59.0327 58.8448 59.0295C58.7059 59.0239 58.5708 59.0179 58.4394 59.0114C58.3084 59.0026 58.1988 58.9955 58.1106 58.9903C57.9035 58.9761 57.7103 58.9829 57.5312 59.0104C57.3544 59.0384 57.2049 59.0995 57.0827 59.1938C56.9632 59.2861 56.8852 59.4252 56.8487 59.611C56.7981 59.8689 56.855 60.0827 57.0195 60.2526C57.1845 60.4201 57.4144 60.5328 57.7095 60.5907ZM61.2239 62.0263L62.2749 56.674L63.2819 56.8717L63.115 57.7219L63.1707 57.7329C63.3249 57.464 63.5412 57.2712 63.8199 57.1547C64.1013 57.0362 64.3988 57.0078 64.7124 57.0693C64.7774 57.0821 64.8537 57.0995 64.941 57.1215C65.0307 57.1439 65.1004 57.1636 65.1502 57.1806L64.9545 58.1772C64.9149 58.1574 64.8431 58.13 64.739 58.0951C64.6353 58.0579 64.53 58.0288 64.4232 58.0078C64.1769 57.9594 63.9471 57.9686 63.7338 58.0353C63.5232 58.1001 63.3442 58.2133 63.1967 58.3749C63.0496 58.5342 62.9532 58.73 62.9076 58.9623L62.2658 62.2309L61.2239 62.0263ZM69.6478 59.4788L68.6707 59.4606C68.6549 59.3321 68.6148 59.2048 68.5502 59.0787C68.4881 58.9531 68.3918 58.8413 68.2614 58.7433C68.1311 58.6454 67.9579 58.5752 67.7419 58.5328C67.4468 58.4748 67.1876 58.4927 66.9641 58.5863C66.7411 58.6776 66.6093 58.8267 66.5687 59.0334C66.5336 59.2123 66.5715 59.3693 66.6825 59.5045C66.7935 59.6397 66.9896 59.7711 67.271 59.8987L68.0829 60.2608C68.553 60.4714 68.8856 60.7188 69.0807 61.0032C69.2758 61.2876 69.3361 61.6191 69.2618 61.9978C69.1988 62.3184 69.0498 62.5859 68.8147 62.8003C68.5824 63.0128 68.2874 63.1575 67.9297 63.2345C67.5743 63.3118 67.1805 63.3081 66.7485 63.2233C66.1491 63.1056 65.6852 62.8818 65.3567 62.5519C65.0287 62.2197 64.8682 61.8082 64.8753 61.3174L65.9125 61.3618C65.9237 61.6367 66.0136 61.8606 66.1823 62.0336C66.3514 62.2044 66.5928 62.3205 66.9064 62.3821C67.2479 62.4492 67.5348 62.4319 67.767 62.3304C67.9997 62.2265 68.1364 62.0711 68.177 61.8644C68.2098 61.6971 68.1747 61.5443 68.0716 61.4058C67.9708 61.2678 67.7984 61.1447 67.5542 61.0364L66.6872 60.6599C66.2101 60.448 65.8763 60.1943 65.6859 59.8987C65.4977 59.6036 65.4411 59.2656 65.5159 58.8846C65.5779 58.5687 65.7205 58.3095 65.9436 58.1073C66.1666 57.905 66.4468 57.7682 66.7841 57.6969C67.1219 57.6233 67.4917 57.6259 67.8936 57.7049C68.472 57.8184 68.9027 58.0333 69.1856 58.3494C69.469 58.6632 69.6231 59.0397 69.6478 59.4788ZM74.6917 64.783C74.1643 64.6794 73.7323 64.4776 73.3956 64.1774C73.0616 63.8754 72.8316 63.4985 72.7056 63.0468C72.5824 62.5931 72.5753 62.0887 72.6843 61.5335C72.7919 60.9852 72.989 60.5221 73.2756 60.1441C73.5644 59.7665 73.9166 59.4967 74.332 59.3346C74.7498 59.173 75.2072 59.1409 75.7044 59.2386C76.0063 59.2979 76.2892 59.4053 76.553 59.5608C76.8168 59.7164 77.0404 59.9231 77.2238 60.1811C77.4072 60.4391 77.5304 60.7516 77.5934 61.1186C77.6569 61.4833 77.641 61.9084 77.5457 62.3939L77.4731 62.7633L73.2184 61.9279L73.3717 61.1473L76.6054 61.7823C76.6592 61.5082 76.6511 61.2545 76.5811 61.0212C76.5116 60.7855 76.3879 60.5863 76.2099 60.4235C76.0343 60.2612 75.8118 60.1535 75.5423 60.1006C75.2496 60.0432 74.9799 60.065 74.7333 60.1661C74.4894 60.2654 74.2857 60.4184 74.122 60.6251C73.9612 60.83 73.8545 61.066 73.8021 61.3332L73.6823 61.943C73.6121 62.3007 73.615 62.6173 73.6912 62.8929C73.7697 63.1688 73.9098 63.3954 74.1115 63.5725C74.3136 63.7473 74.5668 63.8646 74.8711 63.9243C75.0686 63.9631 75.2541 63.9706 75.4276 63.9468C75.6017 63.9206 75.7591 63.8623 75.8999 63.7717C76.0407 63.6811 76.1589 63.5584 76.2545 63.4034L77.2058 63.7748C77.0698 64.0497 76.8781 64.2762 76.6308 64.4544C76.3863 64.6308 76.0988 64.7493 75.7684 64.8099C75.4409 64.8686 75.0819 64.8596 74.6917 64.783ZM79.7668 60.1086L80.5389 62.4244L82.1398 60.5746L83.2793 60.7983L81.0847 63.1468L82.2422 66.1534L81.1028 65.9297L80.2899 63.6928L78.6949 65.4569L77.552 65.2324L79.7431 62.8833L78.6239 59.8842L79.7668 60.1086ZM82.7568 68.339L84.2019 60.9795L85.2194 61.1793L85.049 62.047L85.1361 62.0641C85.2184 61.9644 85.3308 61.8526 85.4734 61.7286C85.616 61.6046 85.799 61.5078 86.0226 61.4383C86.2466 61.3665 86.5247 61.3632 86.8569 61.4284C87.289 61.5133 87.6531 61.6982 87.9494 61.9832C88.2457 62.2681 88.4499 62.6351 88.562 63.0842C88.6764 63.5337 88.6768 64.0476 88.5632 64.6261C88.4496 65.2045 88.2558 65.6816 87.9818 66.0572C87.7083 66.4305 87.3812 66.6956 87.0005 66.8525C86.6204 67.0071 86.2142 67.0419 85.7821 66.9571C85.4569 66.8932 85.2016 66.7864 85.0163 66.6366C84.8333 66.4873 84.6981 66.328 84.6107 66.1589C84.5233 65.9897 84.4594 65.8421 84.419 65.7159L84.3563 65.7036L83.7987 68.5435L82.7568 68.339ZM84.6974 63.8561C84.6235 64.2325 84.6133 64.5731 84.6668 64.8779C84.7203 65.1828 84.8348 65.4356 85.01 65.6365C85.1858 65.8351 85.4235 65.9638 85.7231 66.0227C86.0344 66.0838 86.3108 66.0524 86.5523 65.9285C86.7942 65.8023 86.9966 65.6068 87.1596 65.3421C87.3249 65.0778 87.4427 64.7667 87.5129 64.409C87.5822 64.0559 87.5911 63.7283 87.5394 63.4262C87.4901 63.1246 87.3757 62.8717 87.1962 62.6676C87.0191 62.4639 86.7737 62.3313 86.4601 62.2697C86.1581 62.2104 85.8872 62.2381 85.6476 62.3527C85.4103 62.4677 85.2108 62.6541 85.0492 62.9119C84.8876 63.1697 84.7703 63.4845 84.6974 63.8561ZM91.3455 68.0531C90.8182 67.9496 90.3861 67.7477 90.0494 67.4476C89.7155 67.1455 89.4855 66.7687 89.3595 66.3169C89.2362 65.8632 89.2291 65.3588 89.3381 64.8036C89.4458 64.2553 89.6429 63.7922 89.9294 63.4142C90.2183 63.0367 90.5704 62.7668 90.9859 62.6047C91.4036 62.4431 91.8611 62.4111 92.3582 62.5087C92.6602 62.568 92.9431 62.6754 93.2069 62.8309C93.4707 62.9865 93.6943 63.1932 93.8777 63.4512C94.061 63.7092 94.1842 64.0217 94.2473 64.3887C94.3108 64.7534 94.2948 65.1785 94.1995 65.6641L94.127 66.0334L89.8723 65.198L90.0256 64.4174L93.2593 65.0524C93.3131 64.7783 93.305 64.5246 93.235 64.2913C93.1655 64.0557 93.0417 63.8564 92.8638 63.6936C92.6882 63.5313 92.4656 63.4237 92.1962 63.3707C91.9035 63.3133 91.6338 63.3351 91.3871 63.4363C91.1433 63.5355 90.9395 63.6885 90.7759 63.8953C90.615 64.1001 90.5084 64.3361 90.4559 64.6033L90.3362 65.2131C90.2659 65.5708 90.2689 65.8875 90.3451 66.163C90.4236 66.439 90.5637 66.6655 90.7653 66.8426C90.9674 67.0174 91.2207 67.1347 91.525 67.1945C91.7224 67.2332 91.9079 67.2407 92.0815 67.2169C92.2555 67.1907 92.4129 67.1324 92.5538 67.0418C92.6946 66.9512 92.8128 66.8285 92.9084 66.6735L93.8596 67.0449C93.7236 67.3198 93.532 67.5463 93.2846 67.7245C93.0401 67.9009 92.7527 68.0194 92.4223 68.08C92.0947 68.1387 91.7358 68.1297 91.3455 68.0531ZM94.6719 68.5941L95.7229 63.2417L96.7299 63.4395L96.563 64.2897L96.6187 64.3007C96.7729 64.0318 96.9892 63.839 97.2679 63.7224C97.5493 63.604 97.8468 63.5755 98.1604 63.6371C98.2254 63.6499 98.3017 63.6673 98.389 63.6893C98.4787 63.7117 98.5484 63.7314 98.5982 63.7484L98.4025 64.745C98.3629 64.7252 98.2911 64.6978 98.187 64.6629C98.0833 64.6256 97.978 64.5965 97.8712 64.5755C97.6249 64.5272 97.3951 64.5364 97.1818 64.603C96.9712 64.6678 96.7922 64.7811 96.6447 64.9427C96.4976 65.102 96.4012 65.2978 96.3556 65.5301L95.7138 68.7987L94.6719 68.5941ZM98.2907 69.3047L99.3417 63.9523L100.384 64.1569L99.3326 69.5092L98.2907 69.3047ZM100.03 63.2298C99.8488 63.1942 99.705 63.1032 99.5986 62.9569C99.495 62.8087 99.4599 62.6498 99.4932 62.4802C99.527 62.3083 99.6196 62.1745 99.7711 62.0788C99.9253 61.9812 100.093 61.9502 100.274 61.9858C100.455 62.0214 100.598 62.1133 100.701 62.2615C100.808 62.4078 100.844 62.5669 100.81 62.7388C100.777 62.9084 100.683 63.042 100.529 63.1396C100.378 63.2353 100.211 63.2654 100.03 63.2298ZM102.873 70.3165C102.345 70.213 101.913 70.0112 101.577 69.711C101.243 69.409 101.013 69.0321 100.887 68.5803C100.763 68.1267 100.756 67.6222 100.865 67.067C100.973 66.5188 101.17 66.0557 101.457 65.6776C101.745 65.3001 102.098 65.0303 102.513 64.8682C102.931 64.7065 103.388 64.6745 103.885 64.7721C104.187 64.8314 104.47 64.9388 104.734 65.0944C104.998 65.2499 105.221 65.4567 105.405 65.7147C105.588 65.9726 105.711 66.2851 105.774 66.6522C105.838 67.0169 105.822 67.442 105.727 67.9275L105.654 68.2969L101.399 67.4614L101.553 66.6809L104.786 67.3158C104.84 67.0417 104.832 66.788 104.762 66.5547C104.693 66.3191 104.569 66.1199 104.391 65.9571C104.215 65.7947 103.993 65.6871 103.723 65.6342C103.431 65.5767 103.161 65.5985 102.914 65.6997C102.67 65.799 102.467 65.952 102.303 66.1587C102.142 66.3636 102.036 66.5996 101.983 66.8667L101.863 67.4765C101.793 67.8343 101.796 68.1509 101.872 68.4264C101.951 68.7024 102.091 68.929 102.292 69.1061C102.495 69.2809 102.748 69.3981 103.052 69.4579C103.25 69.4967 103.435 69.5041 103.609 69.4803C103.783 69.4542 103.94 69.3958 104.081 69.3053C104.222 69.2147 104.34 69.0919 104.436 68.937L105.387 69.3083C105.251 69.5832 105.059 69.8098 104.812 69.988C104.567 70.1644 104.28 70.2828 103.949 70.3434C103.622 70.4021 103.263 70.3932 102.873 70.3165ZM107.865 67.8842L107.241 71.0621L106.199 70.8575L107.25 65.5052L108.25 65.7016L108.079 66.5727L108.145 66.5857C108.324 66.3265 108.562 66.1367 108.858 66.0163C109.156 65.8964 109.507 65.8759 109.909 65.9548C110.273 66.0264 110.578 66.1658 110.822 66.373C111.066 66.5778 111.234 66.8449 111.327 67.1742C111.419 67.5035 111.421 67.8889 111.335 68.3302L110.666 71.7347L109.624 71.5301L110.268 68.2511C110.344 67.8632 110.303 67.5402 110.144 67.2821C109.985 67.0217 109.729 66.8569 109.376 66.7875C109.134 66.7401 108.909 66.7502 108.7 66.8178C108.494 66.8858 108.316 67.0102 108.168 67.1908C108.021 67.3696 107.921 67.6007 107.865 67.8842ZM114.15 72.5309C113.632 72.4292 113.209 72.2243 112.881 71.9162C112.556 71.6063 112.334 71.2238 112.216 70.7687C112.098 70.3137 112.091 69.8178 112.197 69.2812C112.303 68.7376 112.5 68.2779 112.786 67.9023C113.072 67.5242 113.425 67.2544 113.842 67.0928C114.26 66.9311 114.721 66.8998 115.225 66.9988C115.632 67.0786 115.979 67.2253 116.268 67.4388C116.557 67.6499 116.773 67.9094 116.915 68.2172C117.059 68.5255 117.115 68.8633 117.081 69.2306L116.067 69.0315C116.061 68.7697 115.975 68.5286 115.811 68.3081C115.649 68.0882 115.402 67.9456 115.07 67.8803C114.78 67.8233 114.51 67.85 114.262 67.9605C114.016 68.069 113.805 68.252 113.629 68.5094C113.454 68.7644 113.329 69.0824 113.254 69.4634C113.177 69.8537 113.17 70.2022 113.233 70.5089C113.296 70.8155 113.42 71.0679 113.606 71.266C113.793 71.4645 114.035 71.5927 114.33 71.6507C114.527 71.6894 114.713 71.6885 114.888 71.648C115.065 71.6056 115.222 71.5266 115.358 71.411C115.496 71.2958 115.606 71.1461 115.688 70.962L116.702 71.1611C116.597 71.4999 116.424 71.7868 116.182 72.0216C115.941 72.2565 115.647 72.4207 115.3 72.5143C114.956 72.6084 114.573 72.6139 114.15 72.5309ZM119.622 73.6055C119.095 73.5019 118.663 73.3001 118.326 72.9999C117.992 72.6979 117.762 72.321 117.636 71.8692C117.513 71.4156 117.506 70.9112 117.615 70.356C117.723 69.8077 117.92 69.3446 118.206 68.9666C118.495 68.589 118.847 68.3192 119.263 68.1571C119.68 67.9955 120.138 67.9634 120.635 68.0611C120.937 68.1204 121.22 68.2278 121.484 68.3833C121.748 68.5389 121.971 68.7456 122.154 69.0036C122.338 69.2616 122.461 69.5741 122.524 69.9411C122.588 70.3058 122.572 70.7309 122.476 71.2164L122.404 71.5858L118.149 70.7504L118.302 69.9698L121.536 70.6048C121.59 70.3307 121.582 70.0769 121.512 69.8437C121.442 69.608 121.319 69.4088 121.141 69.246C120.965 69.0837 120.742 68.976 120.473 68.9231C120.18 68.8656 119.911 68.8875 119.664 68.9886C119.42 69.0879 119.216 69.2409 119.053 69.4476C118.892 69.6525 118.785 69.8885 118.733 70.1556L118.613 70.7655C118.543 71.1232 118.546 71.4398 118.622 71.7154C118.7 71.9913 118.84 72.2179 119.042 72.395C119.244 72.5698 119.497 72.6871 119.802 72.7468C119.999 72.7856 120.185 72.7931 120.358 72.7693C120.532 72.7431 120.69 72.6848 120.831 72.5942C120.971 72.5036 121.09 72.3809 121.185 72.2259L122.136 72.5973C122 72.8721 121.809 73.0987 121.561 73.2769C121.317 73.4533 121.029 73.5718 120.699 73.6323C120.372 73.6911 120.013 73.6821 119.622 73.6055Z" fill="#FFC800"/>
<defs>
<filter id="filter0_d_341_418" x="0.632767" y="13.3029" width="166.723" height="106.507" filterUnits="userSpaceOnUse" color-interpolation-filters="sRGB">
<feFlood flood-opacity="0" result="BackgroundImageFix"/>
<feColorMatrix in="SourceAlpha" type="matrix" values="0 0 0 0 0 0 0 0 0 0 0 0 0 0 0 0 0 0 127 0" result="hardAlpha"/>
<feMorphology radius="14" operator="erode" in="SourceAlpha" result="effect1_dropShadow_341_418"/>
<feOffset dx="4" dy="11"/>
<feGaussianBlur stdDeviation="17"/>
<feComposite in2="hardAlpha" operator="out"/>
<feColorMatrix type="matrix" values="0 0 0 0 0 0 0 0 0 0 0 0 0 0 0 0 0 0 0.25 0"/>
<feBlend mode="normal" in2="BackgroundImageFix" result="effect1_dropShadow_341_418"/>
<feBlend mode="normal" in="SourceGraphic" in2="effect1_dropShadow_341_418" result="shape"/>
</filter>
</defs>
</svg>
