<svg width="161" height="78" viewBox="0 0 161 78" fill="none" xmlns="http://www.w3.org/2000/svg">
<circle cx="4.5" cy="4.5" r="4.5" fill="#D9D9D9"/>
<circle cx="32" cy="32" r="4.5" fill="#D9D9D9"/>
<circle cx="18.25" cy="32" r="4.5" fill="#D9D9D9"/>
<circle cx="4.5" cy="32" r="4.5" fill="#D9D9D9"/>
<circle cx="32" cy="18.25" r="4.5" fill="#D9D9D9"/>
<circle cx="32" cy="4.5" r="4.5" fill="#D9D9D9"/>
<circle cx="18.25" cy="18.25" r="4.5" fill="#D9D9D9"/>
<circle cx="4.5" cy="18.25" r="4.5" fill="#D9D9D9"/>
<circle cx="18.25" cy="4.5" r="4.5" fill="#D9D9D9"/>
<circle cx="45.75" cy="4.5" r="4.5" fill="#D9D9D9"/>
<circle cx="73.25" cy="32" r="4.5" fill="#D9D9D9"/>
<circle cx="59.5" cy="32" r="4.5" fill="#D9D9D9"/>
<circle cx="45.75" cy="32" r="4.5" fill="#D9D9D9"/>
<circle cx="73.25" cy="18.25" r="4.5" fill="#D9D9D9"/>
<circle cx="73.25" cy="4.5" r="4.5" fill="#D9D9D9"/>
<circle cx="59.5" cy="18.25" r="4.5" fill="#D9D9D9"/>
<circle cx="45.75" cy="18.25" r="4.5" fill="#D9D9D9"/>
<circle cx="59.5" cy="4.5" r="4.5" fill="#D9D9D9"/>
<circle cx="4.5" cy="45.75" r="4.5" fill="#D9D9D9"/>
<circle cx="32" cy="73.25" r="4.5" fill="#D9D9D9"/>
<circle cx="18.25" cy="73.25" r="4.5" fill="#D9D9D9"/>
<circle cx="4.5" cy="73.25" r="4.5" fill="#D9D9D9"/>
<circle cx="32" cy="59.5" r="4.5" fill="#D9D9D9"/>
<circle cx="32" cy="45.75" r="4.5" fill="#D9D9D9"/>
<circle cx="18.25" cy="59.5" r="4.5" fill="#D9D9D9"/>
<circle cx="4.5" cy="59.5" r="4.5" fill="#D9D9D9"/>
<circle cx="18.25" cy="45.75" r="4.5" fill="#D9D9D9"/>
<circle cx="45.75" cy="45.75" r="4.5" fill="#D9D9D9"/>
<circle cx="73.25" cy="73.25" r="4.5" fill="#D9D9D9"/>
<circle cx="59.5" cy="73.25" r="4.5" fill="#D9D9D9"/>
<circle cx="45.75" cy="73.25" r="4.5" fill="#D9D9D9"/>
<circle cx="73.25" cy="59.5" r="4.5" fill="#D9D9D9"/>
<circle cx="73.25" cy="45.75" r="4.5" fill="#D9D9D9"/>
<circle cx="59.5" cy="59.5" r="4.5" fill="#D9D9D9"/>
<circle cx="45.75" cy="59.5" r="4.5" fill="#D9D9D9"/>
<circle cx="59.5" cy="45.75" r="4.5" fill="#D9D9D9"/>
<circle cx="87" cy="4.5" r="4.5" fill="#D9D9D9"/>
<circle cx="114.5" cy="32" r="4.5" fill="#D9D9D9"/>
<circle cx="100.75" cy="32" r="4.5" fill="#D9D9D9"/>
<circle cx="87" cy="32" r="4.5" fill="#D9D9D9"/>
<circle cx="114.5" cy="18.25" r="4.5" fill="#D9D9D9"/>
<circle cx="114.5" cy="4.5" r="4.5" fill="#D9D9D9"/>
<circle cx="100.75" cy="18.25" r="4.5" fill="#D9D9D9"/>
<circle cx="87" cy="18.25" r="4.5" fill="#D9D9D9"/>
<circle cx="100.75" cy="4.5" r="4.5" fill="#D9D9D9"/>
<circle cx="128.25" cy="4.5" r="4.5" fill="#D9D9D9"/>
<circle cx="155.75" cy="32" r="4.5" fill="#D9D9D9"/>
<circle cx="142" cy="32" r="4.5" fill="#D9D9D9"/>
<circle cx="128.25" cy="32" r="4.5" fill="#D9D9D9"/>
<circle cx="155.75" cy="18.25" r="4.5" fill="#D9D9D9"/>
<circle cx="155.75" cy="4.5" r="4.5" fill="#D9D9D9"/>
<circle cx="142" cy="18.25" r="4.5" fill="#D9D9D9"/>
<circle cx="128.25" cy="18.25" r="4.5" fill="#D9D9D9"/>
<circle cx="142" cy="4.5" r="4.5" fill="#D9D9D9"/>
<circle cx="87" cy="45.75" r="4.5" fill="#D9D9D9"/>
<circle cx="114.5" cy="73.25" r="4.5" fill="#D9D9D9"/>
<circle cx="100.75" cy="73.25" r="4.5" fill="#D9D9D9"/>
<circle cx="87" cy="73.25" r="4.5" fill="#D9D9D9"/>
<circle cx="114.5" cy="59.5" r="4.5" fill="#D9D9D9"/>
<circle cx="114.5" cy="45.75" r="4.5" fill="#D9D9D9"/>
<circle cx="100.75" cy="59.5" r="4.5" fill="#D9D9D9"/>
<circle cx="87" cy="59.5" r="4.5" fill="#D9D9D9"/>
<circle cx="100.75" cy="45.75" r="4.5" fill="#D9D9D9"/>
<circle cx="128.25" cy="45.75" r="4.5" fill="#D9D9D9"/>
<circle cx="155.75" cy="73.25" r="4.5" fill="#D9D9D9"/>
<circle cx="142" cy="73.25" r="4.5" fill="#D9D9D9"/>
<circle cx="128.25" cy="73.25" r="4.5" fill="#D9D9D9"/>
<circle cx="155.75" cy="59.5" r="4.5" fill="#D9D9D9"/>
<circle cx="155.75" cy="45.75" r="4.5" fill="#D9D9D9"/>
<circle cx="142" cy="59.5" r="4.5" fill="#D9D9D9"/>
<circle cx="128.25" cy="59.5" r="4.5" fill="#D9D9D9"/>
<circle cx="142" cy="45.75" r="4.5" fill="#D9D9D9"/>
</svg>
