<svg id="visual" viewBox="0 0 900 600" width="900" height="600" xmlns="http://www.w3.org/2000/svg" xmlns:xlink="http://www.w3.org/1999/xlink" version="1.1"><rect x="0" y="0" width="900" height="600" fill="#ffffff"></rect><defs><linearGradient id="grad1_0" x1="33.3%" y1="0%" x2="100%" y2="100%"><stop offset="20%" stop-color="#6f52e0" stop-opacity="1"></stop><stop offset="80%" stop-color="#6f52e0" stop-opacity="1"></stop></linearGradient></defs><defs><linearGradient id="grad1_1" x1="33.3%" y1="0%" x2="100%" y2="100%"><stop offset="20%" stop-color="#6f52e0" stop-opacity="1"></stop><stop offset="80%" stop-color="#a68aec" stop-opacity="1"></stop></linearGradient></defs><defs><linearGradient id="grad1_2" x1="33.3%" y1="0%" x2="100%" y2="100%"><stop offset="20%" stop-color="#d5c3f6" stop-opacity="1"></stop><stop offset="80%" stop-color="#a68aec" stop-opacity="1"></stop></linearGradient></defs><defs><linearGradient id="grad1_3" x1="33.3%" y1="0%" x2="100%" y2="100%"><stop offset="20%" stop-color="#d5c3f6" stop-opacity="1"></stop><stop offset="80%" stop-color="#ffffff" stop-opacity="1"></stop></linearGradient></defs><defs><linearGradient id="grad2_0" x1="0%" y1="0%" x2="66.7%" y2="100%"><stop offset="20%" stop-color="#6f52e0" stop-opacity="1"></stop><stop offset="80%" stop-color="#6f52e0" stop-opacity="1"></stop></linearGradient></defs><defs><linearGradient id="grad2_1" x1="0%" y1="0%" x2="66.7%" y2="100%"><stop offset="20%" stop-color="#a68aec" stop-opacity="1"></stop><stop offset="80%" stop-color="#6f52e0" stop-opacity="1"></stop></linearGradient></defs><defs><linearGradient id="grad2_2" x1="0%" y1="0%" x2="66.7%" y2="100%"><stop offset="20%" stop-color="#a68aec" stop-opacity="1"></stop><stop offset="80%" stop-color="#d5c3f6" stop-opacity="1"></stop></linearGradient></defs><defs><linearGradient id="grad2_3" x1="0%" y1="0%" x2="66.7%" y2="100%"><stop offset="20%" stop-color="#ffffff" stop-opacity="1"></stop><stop offset="80%" stop-color="#d5c3f6" stop-opacity="1"></stop></linearGradient></defs><g transform="translate(900, 0)"><path d="M0 486.7C-53.5 455.2 -107.1 423.6 -167.6 404.7C-228.2 385.7 -295.7 379.2 -344.2 344.2C-392.6 309.1 -422 245.4 -442.5 183.3C-463.1 121.2 -474.9 60.6 -486.7 0L0 0Z" fill="#eae1fb"></path><path d="M0 365.1C-40.1 341.4 -80.3 317.7 -125.7 303.5C-171.1 289.3 -221.8 284.4 -258.1 258.1C-294.5 231.8 -316.5 184.1 -331.9 137.5C-347.3 90.9 -356.2 45.4 -365.1 0L0 0Z" fill="#bea6f1"></path><path d="M0 243.4C-26.8 227.6 -53.5 211.8 -83.8 202.3C-114.1 192.8 -147.9 189.6 -172.1 172.1C-196.3 154.6 -211 122.7 -221.3 91.7C-231.6 60.6 -237.5 30.3 -243.4 0L0 0Z" fill="#8c6ee6"></path><path d="M0 121.7C-13.4 113.8 -26.8 105.9 -41.9 101.2C-57 96.4 -73.9 94.8 -86 86C-98.2 77.3 -105.5 61.4 -110.6 45.8C-115.8 30.3 -118.7 15.1 -121.7 0L0 0Z" fill="#6f52e0"></path></g><g transform="translate(0, 600)"><path d="M0 -486.7C59.5 -472.4 118.9 -458.1 181.4 -437.9C243.9 -417.8 309.3 -391.8 344.2 -344.2C379 -296.6 383.2 -227.4 401.9 -166.5C420.5 -105.5 453.6 -52.8 486.7 0L0 0Z" fill="#eae1fb"></path><path d="M0 -365.1C44.6 -354.3 89.2 -343.6 136 -328.4C182.9 -313.3 232 -293.8 258.1 -258.1C284.3 -222.5 287.4 -170.6 301.4 -124.9C315.4 -79.1 340.2 -39.6 365.1 0L0 0Z" fill="#bea6f1"></path><path d="M0 -243.4C29.7 -236.2 59.5 -229 90.7 -219C121.9 -208.9 154.7 -195.9 172.1 -172.1C189.5 -148.3 191.6 -113.7 200.9 -83.2C210.3 -52.8 226.8 -26.4 243.4 0L0 0Z" fill="#8c6ee6"></path><path d="M0 -121.7C14.9 -118.1 29.7 -114.5 45.3 -109.5C61 -104.4 77.3 -97.9 86 -86C94.8 -74.2 95.8 -56.9 100.5 -41.6C105.1 -26.4 113.4 -13.2 121.7 0L0 0Z" fill="#6f52e0"></path></g></svg>