<svg id="visual" viewBox="0 0 900 600" width="900" height="600" xmlns="http://www.w3.org/2000/svg" xmlns:xlink="http://www.w3.org/1999/xlink" version="1.1"><rect x="0" y="0" width="900" height="600" fill="#ffffff"></rect><defs><linearGradient id="grad1_0" x1="33.3%" y1="0%" x2="100%" y2="100%"><stop offset="20%" stop-color="#6f52e0" stop-opacity="1"></stop><stop offset="80%" stop-color="#6f52e0" stop-opacity="1"></stop></linearGradient></defs><defs><linearGradient id="grad1_1" x1="33.3%" y1="0%" x2="100%" y2="100%"><stop offset="20%" stop-color="#6f52e0" stop-opacity="1"></stop><stop offset="80%" stop-color="#a68aec" stop-opacity="1"></stop></linearGradient></defs><defs><linearGradient id="grad1_2" x1="33.3%" y1="0%" x2="100%" y2="100%"><stop offset="20%" stop-color="#d5c3f6" stop-opacity="1"></stop><stop offset="80%" stop-color="#a68aec" stop-opacity="1"></stop></linearGradient></defs><defs><linearGradient id="grad1_3" x1="33.3%" y1="0%" x2="100%" y2="100%"><stop offset="20%" stop-color="#d5c3f6" stop-opacity="1"></stop><stop offset="80%" stop-color="#ffffff" stop-opacity="1"></stop></linearGradient></defs><defs><linearGradient id="grad2_0" x1="0%" y1="0%" x2="66.7%" y2="100%"><stop offset="20%" stop-color="#6f52e0" stop-opacity="1"></stop><stop offset="80%" stop-color="#6f52e0" stop-opacity="1"></stop></linearGradient></defs><defs><linearGradient id="grad2_1" x1="0%" y1="0%" x2="66.7%" y2="100%"><stop offset="20%" stop-color="#a68aec" stop-opacity="1"></stop><stop offset="80%" stop-color="#6f52e0" stop-opacity="1"></stop></linearGradient></defs><defs><linearGradient id="grad2_2" x1="0%" y1="0%" x2="66.7%" y2="100%"><stop offset="20%" stop-color="#a68aec" stop-opacity="1"></stop><stop offset="80%" stop-color="#d5c3f6" stop-opacity="1"></stop></linearGradient></defs><defs><linearGradient id="grad2_3" x1="0%" y1="0%" x2="66.7%" y2="100%"><stop offset="20%" stop-color="#ffffff" stop-opacity="1"></stop><stop offset="80%" stop-color="#d5c3f6" stop-opacity="1"></stop></linearGradient></defs><g transform="translate(900, 0)"><path d="M0 486.7C-53.3 445.2 -106.5 403.7 -155 374.2C-203.5 344.7 -247.1 327.2 -300.5 300.5C-353.9 273.8 -417 237.9 -449.7 186.3C-482.4 134.6 -484.6 67.3 -486.7 0L0 0Z" fill="#eae1fb"></path><path d="M0 365.1C-39.9 333.9 -79.9 302.8 -116.2 280.6C-152.6 258.5 -185.3 245.4 -225.4 225.4C-265.4 205.4 -312.8 178.4 -337.3 139.7C-361.8 101 -363.4 50.5 -365.1 0L0 0Z" fill="#bea6f1"></path><path d="M0 243.4C-26.6 222.6 -53.3 201.8 -77.5 187.1C-101.7 172.3 -123.6 163.6 -150.3 150.3C-177 136.9 -208.5 118.9 -224.8 93.1C-241.2 67.3 -242.3 33.7 -243.4 0L0 0Z" fill="#8c6ee6"></path><path d="M0 121.7C-13.3 111.3 -26.6 100.9 -38.7 93.5C-50.9 86.2 -61.8 81.8 -75.1 75.1C-88.5 68.5 -104.3 59.5 -112.4 46.6C-120.6 33.7 -121.1 16.8 -121.7 0L0 0Z" fill="#6f52e0"></path></g><g transform="translate(0, 600)"><path d="M0 -486.7C71.9 -488.1 143.9 -489.5 186.3 -449.7C228.7 -409.9 241.6 -329 280.7 -280.7C319.9 -232.5 385.3 -217 424.1 -175.7C462.8 -134.3 474.8 -67.2 486.7 0L0 0Z" fill="#eae1fb"></path><path d="M0 -365.1C53.9 -366.1 107.9 -367.1 139.7 -337.3C171.5 -307.4 181.2 -246.7 210.5 -210.5C239.9 -174.4 289 -162.7 318 -131.7C347.1 -100.7 356.1 -50.4 365.1 0L0 0Z" fill="#bea6f1"></path><path d="M0 -243.4C36 -244.1 71.9 -244.7 93.1 -224.8C114.3 -205 120.8 -164.5 140.4 -140.4C159.9 -116.2 192.7 -108.5 212 -87.8C231.4 -67.2 237.4 -33.6 243.4 0L0 0Z" fill="#8c6ee6"></path><path d="M0 -121.7C18 -122 36 -122.4 46.6 -112.4C57.2 -102.5 60.4 -82.2 70.2 -70.2C80 -58.1 96.3 -54.2 106 -43.9C115.7 -33.6 118.7 -16.8 121.7 0L0 0Z" fill="#6f52e0"></path></g></svg>