<svg id="visual" viewBox="0 0 900 600" width="900" height="600" xmlns="http://www.w3.org/2000/svg" xmlns:xlink="http://www.w3.org/1999/xlink" version="1.1"><rect x="0" y="0" width="900" height="600" fill="#ffffff"></rect><defs><linearGradient id="grad1_0" x1="33.3%" y1="0%" x2="100%" y2="100%"><stop offset="20%" stop-color="#6f52e0" stop-opacity="1"></stop><stop offset="80%" stop-color="#6f52e0" stop-opacity="1"></stop></linearGradient></defs><defs><linearGradient id="grad1_1" x1="33.3%" y1="0%" x2="100%" y2="100%"><stop offset="20%" stop-color="#6f52e0" stop-opacity="1"></stop><stop offset="80%" stop-color="#a68aec" stop-opacity="1"></stop></linearGradient></defs><defs><linearGradient id="grad1_2" x1="33.3%" y1="0%" x2="100%" y2="100%"><stop offset="20%" stop-color="#d5c3f6" stop-opacity="1"></stop><stop offset="80%" stop-color="#a68aec" stop-opacity="1"></stop></linearGradient></defs><defs><linearGradient id="grad1_3" x1="33.3%" y1="0%" x2="100%" y2="100%"><stop offset="20%" stop-color="#d5c3f6" stop-opacity="1"></stop><stop offset="80%" stop-color="#ffffff" stop-opacity="1"></stop></linearGradient></defs><defs><linearGradient id="grad2_0" x1="0%" y1="0%" x2="66.7%" y2="100%"><stop offset="20%" stop-color="#6f52e0" stop-opacity="1"></stop><stop offset="80%" stop-color="#6f52e0" stop-opacity="1"></stop></linearGradient></defs><defs><linearGradient id="grad2_1" x1="0%" y1="0%" x2="66.7%" y2="100%"><stop offset="20%" stop-color="#a68aec" stop-opacity="1"></stop><stop offset="80%" stop-color="#6f52e0" stop-opacity="1"></stop></linearGradient></defs><defs><linearGradient id="grad2_2" x1="0%" y1="0%" x2="66.7%" y2="100%"><stop offset="20%" stop-color="#a68aec" stop-opacity="1"></stop><stop offset="80%" stop-color="#d5c3f6" stop-opacity="1"></stop></linearGradient></defs><defs><linearGradient id="grad2_3" x1="0%" y1="0%" x2="66.7%" y2="100%"><stop offset="20%" stop-color="#ffffff" stop-opacity="1"></stop><stop offset="80%" stop-color="#d5c3f6" stop-opacity="1"></stop></linearGradient></defs><g transform="translate(900, 0)"><path d="M0 486.7C-54.8 449.4 -109.6 412 -158.4 382.5C-207.3 353 -250.1 331.4 -302.6 302.6C-355.2 273.9 -417.4 237.9 -449.7 186.3C-482 134.6 -484.4 67.3 -486.7 0L0 0Z" fill="#eae1fb"></path><path d="M0 365.1C-41.1 337 -82.2 309 -118.8 286.9C-155.4 264.7 -187.6 248.6 -227 227C-266.4 205.4 -313 178.4 -337.3 139.7C-361.5 101 -363.3 50.5 -365.1 0L0 0Z" fill="#bea6f1"></path><path d="M0 243.4C-27.4 224.7 -54.8 206 -79.2 191.2C-103.6 176.5 -125.1 165.7 -151.3 151.3C-177.6 136.9 -208.7 119 -224.8 93.1C-241 67.3 -242.2 33.7 -243.4 0L0 0Z" fill="#8c6ee6"></path><path d="M0 121.7C-13.7 112.3 -27.4 103 -39.6 95.6C-51.8 88.2 -62.5 82.9 -75.7 75.7C-88.8 68.5 -104.3 59.5 -112.4 46.6C-120.5 33.7 -121.1 16.8 -121.7 0L0 0Z" fill="#6f52e0"></path></g><g transform="translate(0, 600)"><path d="M0 -486.7C63.8 -481.1 127.6 -475.5 186.3 -449.7C245 -423.9 298.5 -377.8 323.9 -323.9C349.2 -269.9 346.2 -208 368.6 -152.7C391.1 -97.4 438.9 -48.7 486.7 0L0 0Z" fill="#eae1fb"></path><path d="M0 -365.1C47.8 -360.9 95.7 -356.6 139.7 -337.3C183.7 -317.9 223.9 -283.4 242.9 -242.9C261.9 -202.4 259.6 -156 276.5 -114.5C293.3 -73 329.2 -36.5 365.1 0L0 0Z" fill="#bea6f1"></path><path d="M0 -243.4C31.9 -240.6 63.8 -237.8 93.1 -224.8C122.5 -211.9 149.3 -188.9 161.9 -161.9C174.6 -134.9 173.1 -104 184.3 -76.3C195.5 -48.7 219.5 -24.3 243.4 0L0 0Z" fill="#8c6ee6"></path><path d="M0 -121.7C15.9 -120.3 31.9 -118.9 46.6 -112.4C61.2 -106 74.6 -94.5 81 -81C87.3 -67.5 86.5 -52 92.2 -38.2C97.8 -24.3 109.7 -12.2 121.7 0L0 0Z" fill="#6f52e0"></path></g></svg>