<svg id="visual" viewBox="0 0 900 600" width="900" height="600" xmlns="http://www.w3.org/2000/svg" xmlns:xlink="http://www.w3.org/1999/xlink" version="1.1"><rect x="0" y="0" width="900" height="600" fill="#ffffff"></rect><defs><linearGradient id="grad1_0" x1="33.3%" y1="0%" x2="100%" y2="100%"><stop offset="20%" stop-color="#6f52e0" stop-opacity="1"></stop><stop offset="80%" stop-color="#6f52e0" stop-opacity="1"></stop></linearGradient></defs><defs><linearGradient id="grad1_1" x1="33.3%" y1="0%" x2="100%" y2="100%"><stop offset="20%" stop-color="#6f52e0" stop-opacity="1"></stop><stop offset="80%" stop-color="#a68aec" stop-opacity="1"></stop></linearGradient></defs><defs><linearGradient id="grad1_2" x1="33.3%" y1="0%" x2="100%" y2="100%"><stop offset="20%" stop-color="#d5c3f6" stop-opacity="1"></stop><stop offset="80%" stop-color="#a68aec" stop-opacity="1"></stop></linearGradient></defs><defs><linearGradient id="grad1_3" x1="33.3%" y1="0%" x2="100%" y2="100%"><stop offset="20%" stop-color="#d5c3f6" stop-opacity="1"></stop><stop offset="80%" stop-color="#ffffff" stop-opacity="1"></stop></linearGradient></defs><defs><linearGradient id="grad2_0" x1="0%" y1="0%" x2="66.7%" y2="100%"><stop offset="20%" stop-color="#6f52e0" stop-opacity="1"></stop><stop offset="80%" stop-color="#6f52e0" stop-opacity="1"></stop></linearGradient></defs><defs><linearGradient id="grad2_1" x1="0%" y1="0%" x2="66.7%" y2="100%"><stop offset="20%" stop-color="#a68aec" stop-opacity="1"></stop><stop offset="80%" stop-color="#6f52e0" stop-opacity="1"></stop></linearGradient></defs><defs><linearGradient id="grad2_2" x1="0%" y1="0%" x2="66.7%" y2="100%"><stop offset="20%" stop-color="#a68aec" stop-opacity="1"></stop><stop offset="80%" stop-color="#d5c3f6" stop-opacity="1"></stop></linearGradient></defs><defs><linearGradient id="grad2_3" x1="0%" y1="0%" x2="66.7%" y2="100%"><stop offset="20%" stop-color="#ffffff" stop-opacity="1"></stop><stop offset="80%" stop-color="#d5c3f6" stop-opacity="1"></stop></linearGradient></defs><g transform="translate(900, 0)"><path d="M0 486.7C-62.6 479.7 -125.3 472.6 -186.3 449.7C-247.3 426.8 -306.6 388.2 -335.9 335.9C-365.1 283.5 -364.2 217.5 -384.3 159.2C-404.5 100.9 -445.6 50.5 -486.7 0L0 0Z" fill="#eae1fb"></path><path d="M0 365.1C-47 359.7 -94 354.4 -139.7 337.3C-185.5 320.1 -230 291.2 -251.9 251.9C-273.8 212.6 -273.2 163.1 -288.3 119.4C-303.3 75.7 -334.2 37.8 -365.1 0L0 0Z" fill="#bea6f1"></path><path d="M0 243.4C-31.3 239.8 -62.6 236.3 -93.1 224.8C-123.6 213.4 -153.3 194.1 -167.9 167.9C-182.6 141.8 -182.1 108.7 -192.2 79.6C-202.2 50.5 -222.8 25.2 -243.4 0L0 0Z" fill="#8c6ee6"></path><path d="M0 121.7C-15.7 119.9 -31.3 118.1 -46.6 112.4C-61.8 106.7 -76.7 97.1 -84 84C-91.3 70.9 -91.1 54.4 -96.1 39.8C-101.1 25.2 -111.4 12.6 -121.7 0L0 0Z" fill="#6f52e0"></path></g><g transform="translate(0, 600)"><path d="M0 -486.7C64.4 -481.3 128.8 -475.9 186.3 -449.7C243.8 -423.5 294.4 -376.5 324.6 -324.6C354.7 -272.6 364.4 -215.7 388 -160.7C411.6 -105.8 449.2 -52.9 486.7 0L0 0Z" fill="#eae1fb"></path><path d="M0 -365.1C48.3 -361 96.6 -356.9 139.7 -337.3C182.8 -317.6 220.8 -282.4 243.4 -243.4C266 -204.5 273.3 -161.7 291 -120.5C308.7 -79.4 336.9 -39.7 365.1 0L0 0Z" fill="#bea6f1"></path><path d="M0 -243.4C32.2 -240.7 64.4 -237.9 93.1 -224.8C121.9 -211.7 147.2 -188.3 162.3 -162.3C177.4 -136.3 182.2 -107.8 194 -80.4C205.8 -52.9 224.6 -26.5 243.4 0L0 0Z" fill="#8c6ee6"></path><path d="M0 -121.7C16.1 -120.3 32.2 -119 46.6 -112.4C60.9 -105.9 73.6 -94.1 81.1 -81.1C88.7 -68.2 91.1 -53.9 97 -40.2C102.9 -26.5 112.3 -13.2 121.7 0L0 0Z" fill="#6f52e0"></path></g></svg>