<svg width="49" height="30" viewBox="0 0 49 30" fill="none" xmlns="http://www.w3.org/2000/svg">
<path d="M10.32 29.5598C8.4 29.5598 6.65333 29.1331 5.08 28.2798C3.53333 27.3998 2.29333 26.1331 1.36 24.4798C0.453333 22.7998 2.98023e-08 20.7598 2.98023e-08 18.3598V11.6398C2.98023e-08 8.03976 1.01333 5.27976 3.04 3.35975C5.06667 1.41309 7.81333 0.439754 11.28 0.439754C14.72 0.439754 17.3733 1.35975 19.24 3.19975C21.1333 5.01309 22.08 7.47976 22.08 10.5998V10.7598H16.88V10.4398C16.88 9.45309 16.6667 8.55975 16.24 7.75976C15.84 6.95975 15.2267 6.33309 14.4 5.87976C13.5733 5.39976 12.5333 5.15976 11.28 5.15976C9.41333 5.15976 7.94667 5.73309 6.88 6.87975C5.81333 8.02642 5.28 9.58642 5.28 11.5598V18.4398C5.28 20.3864 5.81333 21.9598 6.88 23.1598C7.94667 24.3331 9.44 24.9198 11.36 24.9198C13.28 24.9198 14.68 24.4131 15.56 23.3998C16.44 22.3864 16.88 21.1064 16.88 19.5598V19.1598H10.24V14.6798H22.08V28.9998H17.2V26.3198H16.48C16.2933 26.7731 15.9867 27.2531 15.56 27.7598C15.16 28.2664 14.5467 28.6931 13.72 29.0398C12.8933 29.3864 11.76 29.5598 10.32 29.5598ZM26.5244 28.9998V0.999754H36.5644L42.1244 25.3998H42.8444V0.999754H48.0444V28.9998H38.0044L32.4444 4.59976H31.7244V28.9998H26.5244Z" fill="#7355E7"/>
</svg>
